{"title":"Mundeyan To Bachke Rahin (2014) 720p - x264 - AC3 - Esub - [DDR-","uid":11042811,"size":2954209891,"categoryP":"video","categoryS":"hd___movies","magnet":"?xt=urn:btih:bc007f9648058ce3fc4f4e9eb5d3a7ee79b7866d&amp;dn=Mundeyan+To+Bachke+Rahin+%282014%29+720p+-+x264+-+AC3+-+Esub+-+%5BDDR-&amp;tr=udp%3A%2F%2Ftracker.openbittorrent.com%3A80&amp;tr=udp%3A%2F%2Fopen.demonii.com%3A1337&amp;tr=udp%3A%2F%2Ftracker.coppersurfer.tk%3A6969&amp;tr=udp%3A%2F%2Fexodus.desync.com%3A6969","seeders":0,"leechers":0,"uploader":"SaM","files":2,"time":1410896054,"description":"---------------------------------------------------------------------------------------------------------------------------------\nMovie Info\n---------------------------------------------------------------------------------------------------------------------------------------\n\nMovie Name : Mundeyan To Bachke Rahin\nStarring : Roshan Prince, Jassi Gill, Simran Kaur Mundi, Sunny Gill, Bharti Singh, Anshu Sawhney &amp; More\nDirected : Navinder Pal Singh\nProducer : Aman Gill, Pawan Gill &amp; Arun Mehra\nIMDB : http://www.imdb.com/title/tt3449788/\nMovie Release Date : 30 May 2014\nRipper : AnMoL\nSource : DVD9 My Own Collection\nAudio : Punjabi\nSubtitle : English(.srt)\n\n---------------------------------------------------------------------------------------------------------------------------------------\nTech Info\n---------------------------------------------------------------------------------------------------------------------------------------\n\nFormat : Matroska\nFormat version : Version 2\nFile size : 2.75 GiB\nDuration : 2h 19mn\nOverall bit rate : 2 832 Kbps\n\nVideo\nID : 1\nFormat : AVC\nFormat/Info : Advanced Video Codec\nFormat profile : &lt;a class=&quot;__cf_email__&quot; href=&quot;/cdn-cgi/l/email-protection&quot; data-cfemail=&quot;3078595758707c031e01&quot;&gt;[email&amp;#160;protected]&lt;/a&gt;&lt;script data-cfhash='f9e31' type=&quot;text/javascript&quot;&gt;\n/* &lt;![CDATA[ */!function(){try{var t=&quot;currentScript&quot;in document?document.currentScript:function(){for(var t=document.getElementsByTagName(&quot;script&quot;),e=t.length;e--;)if(t[e].getAttribute(&quot;data-cfhash&quot;))return t[e]}();if(t&amp;&amp;t.previousSibling){var e,r,n,i,c=t.previousSibling,a=c.getAttribute(&quot;data-cfemail&quot;);if(a){for(e=&quot;&quot;,r=parseInt(a.substr(0,2),16),n=2;a.length-n;n+=2)i=parseInt(a.substr(n,2),16)^r,e+=String.fromCharCode(i);e=document.createTextNode(e),c.parentNode.replaceChild(e,c)}t.parentNode.removeChild(t);}}catch(u){}}()/* ]]&gt; */&lt;/script&gt;\nFormat settings, CABAC : Yes\nFormat settings, ReFrames : 5 frames\nCodec ID : V_MPEG4/ISO/AVC\nDuration : 2h 19mn\nBit rate : 2 655 Kbps\nWidth : 1 280 pixels\nHeight : 544 pixels\nDisplay aspect ratio : 2.35:1\nFrame rate mode : Constant\nFrame rate : 29.970 fps\nColor space : YUV\nChroma subsampling : 4:2:0\nBit depth : 8 bits\nScan type : Progressive\nBits/(Pixel*Frame) : 0.127\nStream size : 2.54 GiB (92%)\n\nAudio\nID : 2\nFormat : AC-3\nFormat/Info : Audio Coding 3\nFormat profile : Dolby Digital\nMode extension : CM (complete main)\nFormat settings, Endianness : Big\nCodec ID : A_AC3\nDuration : 2h 19mn\nBit rate mode : Constant\nBit rate : 160 Kbps\nChannel(s) : 2 channels\nChannel positions : Front: L R\nSampling rate : 48.0 KHz\nBit depth : 16 bits\nCompression mode : Lossy\nDelay relative to video : 1mn 5s\nStream size : 159 MiB (6%)\n\n---------------------------------------------------------------------------------------------------------------------------------------\nScreen Shot\n---------------------------------------------------------------------------------------------------------------------------------------\n &lt;a href=&quot;\nhttp://i.imgur.com/EsfeaZo.png&quot; rel=&quot;nofollow&quot; target=&quot;_NEW&quot;&gt;\nhttp://i.imgur.com/EsfeaZo.png&lt;/a&gt; &lt;a href=&quot;\nhttp://i.imgur.com/UdpIW2F.png&quot; rel=&quot;nofollow&quot; target=&quot;_NEW&quot;&gt;\nhttp://i.imgur.com/UdpIW2F.png&lt;/a&gt; &lt;a href=&quot;\nhttp://i.imgur.com/dKGnX3Y.png&quot; rel=&quot;nofollow&quot; target=&quot;_NEW&quot;&gt;\nhttp://i.imgur.com/dKGnX3Y.png&lt;/a&gt; &lt;a href=&quot;\nhttp://i.imgur.com/ZhQ5yce.png&quot; rel=&quot;nofollow&quot; target=&quot;_NEW&quot;&gt;\nhttp://i.imgur.com/ZhQ5yce.png&lt;/a&gt; &lt;a href=&quot;\nhttp://i.imgur.com/p4Da4Xu.png&quot; rel=&quot;nofollow&quot; target=&quot;_NEW&quot;&gt;\nhttp://i.imgur.com/p4Da4Xu.png&lt;/a&gt;","torrent":{"xt":"urn:btih:bc007f9648058ce3fc4f4e9eb5d3a7ee79b7866d","amp;dn":"Mundeyan+To+Bachke+Rahin+%282014%29+720p+-+x264+-+AC3+-+Esub+-+%5BDDR-","amp;tr":["udp%3A%2F%2Ftracker.openbittorrent.com%3A80","udp%3A%2F%2Fopen.demonii.com%3A1337","udp%3A%2F%2Ftracker.coppersurfer.tk%3A6969","udp%3A%2F%2Fexodus.desync.com%3A6969"],"infoHash":"bc007f9648058ce3fc4f4e9eb5d3a7ee79b7866d","infoHashBuffer":{"type":"Buffer","data":[188,0,127,150,72,5,140,227,252,79,78,158,181,211,167,238,121,183,134,109]},"announce":[],"urlList":[]}}